<svg viewBox="-2 0 464 464" xmlns="http://www.w3.org/2000/svg">
    <g fill="#ff9811">
        <path d="M86.84 112h112v32h-112zm0 0M86.84 112H37.8c-8.417-.02-15.413 6.484-16 14.879L20.634 144H86.84zm0 0"/>
        <path d="M265.047 144l-1.168-17.121c-.59-8.395-7.582-14.899-16-14.879h-49.04v32zm0 0"/>
    </g>
    <path d="M272.68 256h-27.602c-8.113 0-14.933 6.094-15.84 14.16l-20.32 176a14.971 14.971 0 0 0-.078 1.918c.043 8.777 7.144 15.879 15.918 15.922H15.96a16.005 16.005 0 0 1-11.68-5.105A16.005 16.005 0 0 1 .04 446.879l2.719-39.84L20.598 144h244.48l3.762 55.281zm0 0" fill="#ff9275"/>
    <path d="M102.84 184c0 8.836-7.164 16-16 16s-16-7.164-16-16 7.164-16 16-16 16 7.164 16 16zm0 0M214.84 184c0 8.836-7.164 16-16 16s-16-7.164-16-16 7.164-16 16-16 16 7.164 16 16zm0 0" fill="#ffde55"/>
    <path d="M444.918 464h-220.16a16.01 16.01 0 0 1-11.91-5.375 16.009 16.009 0 0 1-3.93-12.465l3.36-28.96L227.16 288l2.078-17.84c.907-8.066 7.727-14.16 15.84-14.16h179.52c8.117 0 14.937 6.094 15.84 14.16l1.28 11.36.802 6.48 18.238 158.16a15.994 15.994 0 0 1-3.93 12.465 16.01 16.01 0 0 1-11.91 5.375zm0 0" fill="#ffc477"/>
    <path d="M444.918 464h-220.16a16.01 16.01 0 0 1-11.91-5.375 16.009 16.009 0 0 1-3.93-12.465l3.36-28.96a552.752 552.752 0 0 0 229.44-135.68l.802 6.48 18.238 158.16a15.994 15.994 0 0 1-3.93 12.465 16.01 16.01 0 0 1-11.91 5.375zm0 0" fill="#ffb655"/>
    <path d="M390.84 328c0 8.836-7.164 16-16 16s-16-7.164-16-16 7.164-16 16-16 16 7.164 16 16zm0 0M310.84 328c0 8.836-7.164 16-16 16s-16-7.164-16-16 7.164-16 16-16 16 7.164 16 16zm0 0" fill="#ff9275"/>
    <path d="M442.52 288H227.16l2.078-17.84c.907-8.066 7.727-14.16 15.84-14.16h179.52c8.117 0 14.937 6.094 15.84 14.16zm0 0" fill="#ffa733"/>
    <path d="M206.84 184h-16V64c0-26.508-21.492-48-48-48-26.512 0-48 21.492-48 48v120h-16V64c0-35.348 28.652-64 64-64 35.344 0 64 28.652 64 64zm0 0" fill="#ffb655"/>
    <path d="M382.84 328h-16v-96c0-13.254-10.746-24-24-24h-16c-13.254 0-24 10.746-24 24v96h-16v-96c.027-22.082 17.918-39.973 40-40h16c22.078.027 39.973 17.918 40 40zm0 0M272.68 256h-27.602c-8.113 0-14.933 6.094-15.84 14.16l-20.32 176a14.971 14.971 0 0 0-.078 1.918c.043 8.777 7.144 15.879 15.918 15.922H15.96a16.005 16.005 0 0 1-11.68-5.105A16.005 16.005 0 0 1 .04 446.879l2.719-39.84A535.515 535.515 0 0 0 268.84 199.281zm0 0" fill="#ff7956"/>
</svg>
